<mxfile host="Electron" modified="2024-05-07T08:48:54.386Z" agent="Mozilla/5.0 (Windows NT 10.0; Win64; x64) AppleWebKit/537.36 (KHTML, like Gecko) draw.io/24.1.0 Chrome/120.0.6099.109 Electron/28.1.0 Safari/537.36" etag="r8hYjs6tJTv9-57GNiaJ" version="24.1.0" type="device">
  <diagram name="第 1 页" id="zZ4q6dEaDFui3z5GqpVm">
    <mxGraphModel dx="1562" dy="917" grid="1" gridSize="10" guides="1" tooltips="1" connect="1" arrows="1" fold="1" page="1" pageScale="1" pageWidth="827" pageHeight="1169" math="0" shadow="0">
      <root>
        <mxCell id="0" />
        <mxCell id="1" parent="0" />
        <mxCell id="RZWAKU0RpWgvcZnwA-yZ-16" style="rounded=0;orthogonalLoop=1;jettySize=auto;html=1;entryX=0.5;entryY=0;entryDx=0;entryDy=0;" edge="1" parent="1" target="RZWAKU0RpWgvcZnwA-yZ-14">
          <mxGeometry relative="1" as="geometry">
            <mxPoint x="400" y="480" as="sourcePoint" />
          </mxGeometry>
        </mxCell>
        <mxCell id="RZWAKU0RpWgvcZnwA-yZ-1" value="重命名映射表（RAT）" style="swimlane;whiteSpace=wrap;html=1;startSize=23;" vertex="1" parent="1">
          <mxGeometry x="400" y="390" width="145" height="150" as="geometry">
            <mxRectangle x="420" y="390" width="160" height="30" as="alternateBounds" />
          </mxGeometry>
        </mxCell>
        <mxCell id="RZWAKU0RpWgvcZnwA-yZ-6" value="Src0 → Psrc0&lt;div&gt;Src1 → Psrc1&lt;/div&gt;&lt;div&gt;&lt;br&gt;&lt;/div&gt;&lt;div&gt;&lt;br&gt;&lt;/div&gt;&lt;div&gt;Dest → Pdest&lt;/div&gt;" style="text;html=1;align=center;verticalAlign=middle;whiteSpace=wrap;rounded=0;fontStyle=1" vertex="1" parent="RZWAKU0RpWgvcZnwA-yZ-1">
          <mxGeometry x="-7.5" y="80" width="160" height="30" as="geometry" />
        </mxCell>
        <mxCell id="RZWAKU0RpWgvcZnwA-yZ-12" style="rounded=0;orthogonalLoop=1;jettySize=auto;html=1;exitX=0.5;exitY=1;exitDx=0;exitDy=0;" edge="1" parent="1" source="RZWAKU0RpWgvcZnwA-yZ-7">
          <mxGeometry relative="1" as="geometry">
            <mxPoint x="400" y="450" as="targetPoint" />
          </mxGeometry>
        </mxCell>
        <mxCell id="RZWAKU0RpWgvcZnwA-yZ-7" value="Dest = Src0 op Src1" style="text;html=1;align=center;verticalAlign=middle;whiteSpace=wrap;rounded=0;fontStyle=1;strokeColor=default;" vertex="1" parent="1">
          <mxGeometry x="180" y="390" width="160" height="30" as="geometry" />
        </mxCell>
        <mxCell id="RZWAKU0RpWgvcZnwA-yZ-24" style="edgeStyle=orthogonalEdgeStyle;rounded=0;orthogonalLoop=1;jettySize=auto;html=1;exitX=0.5;exitY=1;exitDx=0;exitDy=0;entryX=0.5;entryY=0;entryDx=0;entryDy=0;" edge="1" parent="1" source="RZWAKU0RpWgvcZnwA-yZ-14" target="RZWAKU0RpWgvcZnwA-yZ-23">
          <mxGeometry relative="1" as="geometry" />
        </mxCell>
        <mxCell id="RZWAKU0RpWgvcZnwA-yZ-14" value="Dest = Psrc0 op Psrc1" style="text;html=1;align=center;verticalAlign=middle;whiteSpace=wrap;rounded=0;fontStyle=1;strokeColor=default;" vertex="1" parent="1">
          <mxGeometry x="180" y="510" width="160" height="30" as="geometry" />
        </mxCell>
        <mxCell id="RZWAKU0RpWgvcZnwA-yZ-22" style="edgeStyle=orthogonalEdgeStyle;rounded=0;orthogonalLoop=1;jettySize=auto;html=1;exitX=0.5;exitY=1;exitDx=0;exitDy=0;entryX=0.5;entryY=0;entryDx=0;entryDy=0;" edge="1" parent="1" source="RZWAKU0RpWgvcZnwA-yZ-20" target="RZWAKU0RpWgvcZnwA-yZ-23">
          <mxGeometry relative="1" as="geometry">
            <mxPoint x="510" y="610" as="targetPoint" />
            <Array as="points">
              <mxPoint x="605" y="570" />
              <mxPoint x="260" y="570" />
            </Array>
          </mxGeometry>
        </mxCell>
        <mxCell id="RZWAKU0RpWgvcZnwA-yZ-25" style="edgeStyle=orthogonalEdgeStyle;rounded=0;orthogonalLoop=1;jettySize=auto;html=1;exitX=0.5;exitY=1;exitDx=0;exitDy=0;entryX=0.5;entryY=1;entryDx=0;entryDy=0;" edge="1" parent="1" source="RZWAKU0RpWgvcZnwA-yZ-20" target="RZWAKU0RpWgvcZnwA-yZ-1">
          <mxGeometry relative="1" as="geometry">
            <Array as="points">
              <mxPoint x="605" y="570" />
              <mxPoint x="473" y="570" />
            </Array>
          </mxGeometry>
        </mxCell>
        <mxCell id="RZWAKU0RpWgvcZnwA-yZ-20" value="空闲列表&lt;div&gt;（free list）&lt;/div&gt;" style="rounded=0;whiteSpace=wrap;html=1;fontStyle=1" vertex="1" parent="1">
          <mxGeometry x="570" y="390" width="70" height="150" as="geometry" />
        </mxCell>
        <mxCell id="RZWAKU0RpWgvcZnwA-yZ-23" value="Pdest = Psrc0 op Psrc1" style="text;html=1;align=center;verticalAlign=middle;whiteSpace=wrap;rounded=0;fontStyle=1;strokeColor=default;" vertex="1" parent="1">
          <mxGeometry x="180" y="610" width="160" height="30" as="geometry" />
        </mxCell>
        <mxCell id="RZWAKU0RpWgvcZnwA-yZ-26" value="Pdest" style="text;html=1;align=center;verticalAlign=middle;whiteSpace=wrap;rounded=0;fontStyle=1" vertex="1" parent="1">
          <mxGeometry x="442.5" y="570" width="60" height="30" as="geometry" />
        </mxCell>
      </root>
    </mxGraphModel>
  </diagram>
</mxfile>
